<?xml version="1.0" encoding="UTF-8" standalone="no"?>
<!-- Created with Inkscape (http://www.inkscape.org/) -->

<svg
   width="1023.5917"
   height="1023.5913"
   viewBox="0 0 270.82531 270.8252"
   version="1.1"
   id="svg1"
   xml:space="preserve"
   sodipodi:docname="design.svg"
   inkscape:version="1.4.3 (0d15f75042, 2025-12-25)"
   inkscape:export-filename="../spectrum_launcher/spectum_launcher_dark.svg"
   inkscape:export-xdpi="96"
   inkscape:export-ydpi="96"
   xmlns:inkscape="http://www.inkscape.org/namespaces/inkscape"
   xmlns:sodipodi="http://sodipodi.sourceforge.net/DTD/sodipodi-0.dtd"
   xmlns="http://www.w3.org/2000/svg"
   xmlns:svg="http://www.w3.org/2000/svg"><sodipodi:namedview
     id="namedview1"
     pagecolor="#ffffff"
     bordercolor="#000000"
     borderopacity="0.25"
     inkscape:showpageshadow="2"
     inkscape:pageopacity="0.0"
     inkscape:pagecheckerboard="0"
     inkscape:deskcolor="#ffffff"
     inkscape:document-units="mm"
     showgrid="true"
     inkscape:zoom="0.098228455"
     inkscape:cx="13738.382"
     inkscape:cy="5385.4049"
     inkscape:window-width="2560"
     inkscape:window-height="1360"
     inkscape:window-x="0"
     inkscape:window-y="0"
     inkscape:window-maximized="1"
     inkscape:current-layer="layer1"
     inkscape:export-bgcolor="#ffffff00"><inkscape:grid
       id="grid2"
       units="mm"
       originx="-4551.1318"
       originy="-1893.4884"
       spacingx="4"
       spacingy="4"
       empcolor="#0099e5"
       empopacity="0.09803922"
       color="#0099e5"
       opacity="0.14901961"
       empspacing="5"
       enabled="false"
       visible="true"
       dotted="false" /><inkscape:page
       x="0"
       y="0"
       width="270.82532"
       height="270.8252"
       id="page2"
       margin="0"
       bleed="0" /></sodipodi:namedview><defs
     id="defs1"><inkscape:path-effect
       effect="fillet_chamfer"
       id="path-effect83"
       is_visible="true"
       lpeversion="1"
       nodesatellites_param="F,0,0,1,0,10.583333,0,1 @ F,0,0,1,0,10.583333,0,1 @ F,0,0,1,0,10.583333,0,1 @ F,0,0,1,0,10.583333,0,1 @ F,0,0,1,0,10.583333,0,1 @ F,0,0,1,0,10.583333,0,1"
       radius="40"
       unit="px"
       method="auto"
       mode="F"
       chamfer_steps="1"
       flexible="false"
       use_knot_distance="true"
       apply_no_radius="true"
       apply_with_radius="true"
       only_selected="false"
       hide_knots="false" /></defs><g
     inkscape:label="Logos"
     inkscape:groupmode="layer"
     id="layer1"
     transform="translate(-4551.1311,-1893.4884)"><g
       id="g82"
       style="display:inline"
       transform="translate(4334.3628,2518.3717)"
       inkscape:label="constellation-dark"
       inkscape:export-filename="../constellation/constellation-dark.png"
       inkscape:export-xdpi="96"
       inkscape:export-ydpi="96"><path
         id="path79"
         style="baseline-shift:baseline;display:inline;overflow:visible;opacity:1;vector-effect:none;fill:#ffffff;fill-opacity:1;stroke-width:0.644903;enable-background:accumulate;stop-color:#000000;stop-opacity:1"
         d="m 248.64041,-515.00458 c -4.37009,1e-5 -8.56134,1.73646 -11.65148,4.82658 l -15.88121,15.8812 c -2.66539,2.66539 -2.66545,6.98668 0,9.65213 l 15.88121,15.88171 c 3.09013,3.09014 7.28138,4.82608 11.65148,4.82607 h 4.54649 l 51.06769,-51.06769 z m 202.53544,0 -51.06768,51.06769 h 55.61417 c 4.37011,0 8.56136,-1.73642 11.65149,-4.82658 l 15.8812,-15.8812 c 2.66539,-2.6654 2.6654,-6.98673 0,-9.65213 l -15.8812,-15.8812 c -3.09012,-3.09018 -7.28141,-4.8266 -11.65149,-4.82658 z" /><path
         id="path80"
         style="baseline-shift:baseline;display:inline;overflow:visible;opacity:1;vector-effect:none;fill:#f50376;fill-opacity:1;stroke-width:0.644903;enable-background:accumulate;stop-color:#000000;stop-opacity:1"
         d="m 365.23019,-429.05892 -51.06716,51.06717 h 141.55931 c 4.37011,0 8.56136,-1.7359 11.65149,-4.82606 l 15.8812,-15.88172 c 2.66539,-2.6654 2.6654,-6.98673 0,-9.65213 l -15.8812,-15.8812 c -3.09012,-3.09018 -7.28141,-4.82608 -11.65149,-4.82606 z" /><path
         id="path81"
         style="baseline-shift:baseline;display:inline;overflow:visible;opacity:1;vector-effect:none;fill:#f50376;fill-opacity:1;stroke-width:0.644903;enable-background:accumulate;stop-color:#000000;stop-opacity:1"
         d="m 248.64041,-600.94972 c -4.37009,10e-6 -8.56134,1.73594 -11.65148,4.82606 l -15.88121,15.88172 c -2.66539,2.66539 -2.66545,6.98667 0,9.65212 l 15.88121,15.88121 c 3.09013,3.09014 7.28138,4.82607 11.65148,4.82606 h 90.49215 l 51.06717,-51.06717 z" /><path
         style="fill:#0f79f8;fill-opacity:1;stroke:none;stroke-width:30.9454;stroke-dasharray:none;stroke-opacity:1"
         d="m 444.3598,350.86856 h -34.82635 a 25.550426,25.550426 157.5 0 0 -18.06688,7.48355 L 42.479172,707.33951 a 25.550426,25.550426 112.5 0 0 -7.483546,18.06688 v 34.82634 a 10.583333,10.583333 45 0 0 10.583333,10.58333 h 34.82634 a 25.550425,25.550425 157.5 0 0 18.066879,-7.48355 L 447.45957,414.34511 a 25.550433,25.550433 112.5 0 0 7.48355,-18.06688 l 10e-6,-34.82634 A 10.583331,10.583331 45.000005 0 0 444.3598,350.86856 Z"
         id="path82"
         sodipodi:nodetypes="ccccccc"
         inkscape:path-effect="#path-effect83"
         inkscape:original-d="M 454.94313,350.86856 H 398.95012 L 34.995626,714.82306 v 55.993 H 90.988632 L 454.94312,406.86156 Z"
         transform="matrix(0,-0.64490251,-0.64490251,0,713.86999,-331.48928)" /></g></g></svg>
